<svg version="1.2" xmlns="http://www.w3.org/2000/svg" viewBox="0 0 512 512" width="512" height="512">
	<style>
		.s0 { fill: #222423;stroke: #222423;stroke-width: .4 } 
		.s1 { fill: #ffffff;stroke: #ffffff;stroke-width: .4 } 
	</style>
	<path class="s0" d="m17.04 62.46c-0.67-10.38 9.25-19.14 19.39-18.36 93.96-0.2 187.9-0.04 281.84 0 5.1-0.91 7.36 5.7 4.34 9.16-47.82 61.69-97.09 122.23-146.14 182.94-12.56 15.46-24.59 31.41-37.86 46.3-2.89 3.24-5.3 6.85-7.3 10.69 25.23-4.05 50.41-8.84 75.35-14.58-10.86 27.46-23.16 54.33-34.52 81.57-7.82 18.55-17.03 36.54-23.22 55.73-3.02-9.37 0.25-19.3-0.42-28.93 1.45-17.44-0.21-34.93-3.31-52.1-6.16 30.26-15.86 59.64-26.05 88.76-27.38-0.05-54.78 0.37-82.16-0.17-11.22 0.06-20.49-10.48-19.83-21.53-0.32-113.15-0.01-226.32-0.11-339.48z"/>
	<path class="s0" d="m256.17 206.56c31.72-55.26 62.71-111.03 97.24-164.56q4.26 2.27 8.48 4.64c-0.19 55.38 0.17 110.78-0.26 166.18-6.9-0.16-13.83-0.14-20.71 0.28-0.84 10.07 0.82 20.1 1.11 30.15 6.76 0.98 13.55 2.14 20.43 2.25 4.73-5.04 7.95-14.2 15.69-14.53 10.07 5.39 19.99 12.07 28.04 20.13-0.27 8.7-3.16 17.13-5.73 25.4 4.79 6.88 8.47 14.43 12.2 21.93 7.87 1.62 15.79 3.04 23.65 4.86 2.57 13.93 2.76 28.13 2.71 42.27-9.2 2.21-18.52 3.81-27.71 6.05-1.24 6.63-4.22 12.69-6.77 18.85 5.63 6.26 9.98 13.47 14.75 20.37-9.25 10.34-18.89 21.03-30.23 28.91-7.38-3.67-12.64-10.46-20-14.16-6.53-1.31-12.58 2.77-18.75 4.3-1.85 9.16-2.63 18.5-3.98 27.75-11.78 0.33-23.54 0.35-35.32-0.01-1.62-8.25-2.28-16.66-4.06-24.87-3.06-4.19-8.52-5.08-13.15-6.5-6.61 5.1-13.83 9.38-20.53 14.39-8.98-8.43-21.6-13.8-26.73-25.63 3.73-6.57 7.42-13.18 10.21-20.21-2.21-4.15-3.48-9.9-8.62-11.27-5.88-1.14-11.9-1.34-17.86-1.65-4.75 7.56-8.88 15.71-15.98 21.41 18.23 29.53 46.53 53.32 80.23 62.78 34.1 10.13 72.26 6.1 103.37-11.16 31.42-17.45 53.7-48.82 63.48-83.05-7.13 1-13.96 3.31-20.97 4.83 1.62-3.74 3.59-7.36 6.17-10.53 11.09-14.35 19.53-30.57 30.4-45.08 2.16-3.73 6.51-2.68 10.03-2.53 8.19 22.7 13.15 46.44 19.47 69.72-0.49 0.29-1.49 0.84-1.98 1.11-5.23-3.4-9.54-7.99-14.19-12.05-7.58 23.45-17.79 46.43-33.59 65.57-28.67 36.76-74.63 57.98-120.84 59.97-56.18 2.34-111.37-22.3-151.21-61.19-15.42 8.03-27.59 22.18-43.98 28.66q1.07-3.15 2.75-5.97c54.13-77.88 120.93-145.74 178.57-220.87 6.68-8.18 13.76-16.12 19.17-25.22-24.29 4.65-48.41 10.22-72.88 14-5.37 0.89-10.61 2.29-15.82 3.77-0.03-3.57 1.79-6.61 3.7-9.49z"/>
	<path class="s1" d="m62.31 87.72c49.46 0.5 98.91 0.38 148.36 0.08q-0.42 10.12-0.02 20.24c-49.52 0.87-99.04 0.26-148.54 0.34 0.18-6.9 0.29-13.78 0.2-20.66z"/>
	<path class="s1" d="m62.52 140.22c38.16 0.47 76.32-0.18 114.48 0.47q-0.42 9.89 0.44 19.79c-38.38 0.5-76.76-0.04-115.15 0.24 0.14-6.84 0.25-13.67 0.23-20.5z"/>
	<path class="s0" d="m377.83 191.5c47.01 10.93 86.38 49.81 97.59 96.8-6.36 2.6-10.89 7.85-14.75 13.31-0.73-0.44-2.18-1.33-2.91-1.8-8.13-30.24-23.95-60.88-52.36-76.47-9.17-3.73-18.44-7.32-27.98-9.96 0.14-7.3 0.07-14.6 0.41-21.88z"/>
	<path class="s1" d="m62.09 192.44c23.09 0.1 46.17 0.33 69.26 0.04 0.18 7.35 0.38 14.69 0.31 22.03-23.23-0.24-46.46 0.19-69.69-0.37q-0.07-10.85 0.12-21.7z"/>
	<path class="s1" d="m321.01 282.5c22.89-4.06 47.58 12.3 52.06 35.33 4.26 15.49-2.49 32.15-13.59 43.11-11.21 11.17-28.58 13.06-43.44 9.92-18.77-5.86-34.25-24.5-32.83-44.75 0.54-21.06 17.36-39.63 37.8-43.61z"/>
</svg>